<?xml version="1.0" encoding="UTF-8" standalone="no"?>
<!-- Created with Inkscape (http://www.inkscape.org/) -->

<svg
   width="269.40656mm"
   height="70.706841mm"
   viewBox="0 0 269.40656 70.706841"
   version="1.1"
   id="svg5"
   xml:space="preserve"
   xmlns="http://www.w3.org/2000/svg"
   xmlns:svg="http://www.w3.org/2000/svg"><defs
     id="defs2" /><g
     id="layer1"
     transform="translate(-56.457536,-118.74971)"><path
       id="path4108"
       style="font-size:41.9377px;font-family:'Revue Std';-inkscape-font-specification:'Revue Std';fill:#000000;fill-opacity:1;stroke-width:65.4227;stroke-linecap:round;paint-order:stroke fill markers"
       d="m 56.457536,118.74986 v 69.18234 h 16.258439 v -69.18234 z m 26.589591,18.03662 -10.246403,22.94796 12.278321,28.19776 H 103.03092 L 90.159871,159.22594 100.74476,136.78648 Z" /><g
       id="g4745"
       style="fill:#000000"><path
         style="font-size:41.9377px;font-family:'Revue Std';-inkscape-font-specification:'Revue Std';fill:#000000;fill-opacity:1;stroke-width:65.4227;stroke-linecap:round;paint-order:stroke fill markers"
         d="m 105.0894,136.7863 h 16.25834 v 51.14602 H 105.0894 Z"
         id="path4112" /><path
         style="font-size:41.9377px;font-family:'Revue Std';-inkscape-font-specification:'Revue Std';fill:#000000;fill-opacity:1;stroke-width:65.4227;stroke-linecap:round;paint-order:stroke fill markers"
         d="m 105.0894,118.74971 h 16.25834 v 13.80267 H 105.0894 Z"
         id="path964" /></g><path
       d="m 126.81081,136.7863 h 25.65769 q 9.39935,0 13.63329,4.4033 4.23394,4.40331 4.23394,14.73412 v 32.0086 H 154.0774 v -29.12951 q 0,-5.67348 -1.43954,-6.94367 -1.35487,-1.27017 -7.6211,-1.27017 h -1.94762 v 37.34335 h -16.25833 z"
       style="font-size:41.9377px;font-family:'Revue Std';-inkscape-font-specification:'Revue Std';fill:#000000;fill-opacity:1;stroke-width:65.4227;stroke-linecap:round;paint-order:stroke fill markers"
       id="path966" /><path
       d="m 175.48353,118.74971 h 16.25834 v 69.18261 h -16.25834 z m 26.58916,18.03659 h 17.69788 l -10.58487,22.43989 12.87118,28.70613 h -17.95191 l -12.27843,-28.19804 z"
       style="font-size:41.9377px;font-family:'Revue Std';-inkscape-font-specification:'Revue Std';fill:#000000;fill-opacity:1;stroke-width:65.4227;stroke-linecap:round;paint-order:stroke fill markers"
       id="path968" /><path
       d="m 239.22096,135.60082 h 7.95981 q 9.6534,0 15.07284,5.08073 5.41946,5.08072 5.41946,14.22603 0,14.14138 -7.19773,24.38752 -7.11301,10.16145 -17.27448,10.16145 -7.02834,0 -12.70182,-4.99604 -5.67347,-4.99607 -8.72193,-12.87119 -3.04842,-7.87514 -3.04842,-16.68174 0,-9.14531 5.41945,-14.22603 5.41943,-5.08073 15.07282,-5.08073 z m -3.89521,20.91566 q 0,7.1977 2.62501,12.70182 2.62506,5.50414 5.2501,5.50414 2.62506,0 5.2501,-5.50414 2.62504,-5.5888 2.62504,-12.70182 0,-7.11301 -7.95981,-7.11301 -7.79044,0 -7.79044,7.11301 z"
       style="font-size:41.9377px;font-family:'Revue Std';-inkscape-font-specification:'Revue Std';fill:#000000;fill-opacity:1;stroke-width:65.4227;stroke-linecap:round;paint-order:stroke fill markers"
       id="path970" /><path
       d="m 276.90084,134.92736 h 15.95551 l -6.84874,23.50082 H 270.0521 Z"
       style="font-size:41.9377px;font-family:'Revue Std';-inkscape-font-specification:'Revue Std';fill:#000000;fill-opacity:1;stroke-width:98.7547;stroke-linecap:round;paint-order:stroke fill markers"
       id="path972" /><path
       d="m 306.04925,136.7863 h 14.22603 l 4.0646,13.37928 h -7.79048 q -2.20163,0 -3.21777,0.42339 -0.93147,0.3387 -0.93147,1.52423 0,0.7621 1.35487,2.54035 l 7.02833,8.8913 q 5.08072,6.35089 5.08072,11.85502 0,5.25008 -3.5565,8.89128 -3.55651,3.64117 -8.97595,3.64117 h -16.76642 l -4.06458,-13.80262 h 9.06063 q 3.55652,0 4.48799,-0.16951 1.01614,-0.1695 1.01614,-1.01616 0,-0.93145 -2.37101,-4.06457 l -6.60494,-8.55258 q -3.13313,-4.06458 -4.14927,-6.52027 -1.01614,-2.54035 -1.01614,-5.25007 0,-4.57266 3.55651,-8.12916 3.64118,-3.64122 9.56871,-3.64122 z"
       style="font-size:41.9377px;font-family:'Revue Std';-inkscape-font-specification:'Revue Std';fill:#000000;fill-opacity:1;stroke-width:65.4227;stroke-linecap:round;paint-order:stroke fill markers"
       id="path974" /></g></svg>
